<?xml version="1.0" encoding="UTF-8"?>
<svg version="1.1" xmlns="http://www.w3.org/2000/svg" width="1254" height="1254">
<path d="M0 0 C413.82 0 827.64 0 1254 0 C1254 413.82 1254 827.64 1254 1254 C840.18 1254 426.36 1254 0 1254 C0 840.18 0 426.36 0 0 Z " fill="#011125" transform="translate(0,0)"/>
<path d="M0 0 C413.82 0 827.64 0 1254 0 C1254 413.82 1254 827.64 1254 1254 C840.18 1254 426.36 1254 0 1254 C0 840.18 0 426.36 0 0 Z M572 39 C571.17827301 39.08277191 570.35654602 39.16554382 569.50991821 39.25082397 C564.60318153 39.75675464 559.70811332 40.33373194 554.8125 40.9375 C553.45510969 41.09597373 552.09768759 41.25417538 550.74023438 41.41210938 C542.0319875 42.45442311 533.55272098 44.07413482 525 46 C522.52519721 46.49006803 520.04662382 46.93273981 517.5625 47.375 C500.84654003 50.4497299 484.28306672 54.11289336 468 59 C466.91235352 59.32605225 466.91235352 59.32605225 465.80273438 59.65869141 C460.17612946 61.36173973 454.58373694 63.16171185 449 65 C448.02530762 65.31952637 447.05061523 65.63905273 446.04638672 65.96826172 C425.44301035 72.7714158 405.07695051 80.47342044 385.83203125 90.5625 C382.61281487 92.19652983 379.32000752 93.58283522 376 95 C357.39859975 103.84259004 339.23752487 113.72346124 322 125 C321.10555176 125.58265625 320.21110352 126.1653125 319.28955078 126.765625 C296.39348519 141.72312113 274.42880018 157.75478771 253.67382812 175.56884766 C251.91973152 177.06863096 250.15603828 178.55652853 248.390625 180.04296875 C242.34830129 185.14799699 236.5261354 190.31741059 231.00390625 195.9921875 C229.0917502 197.90807095 227.11930222 199.67919989 225.0625 201.4375 C218.20541561 207.33841725 211.90907295 213.80986145 206.03515625 220.68359375 C203.85190956 223.16855592 201.60097658 225.57861667 199.33666992 227.98950195 C194.0901002 233.57731199 189.03841146 239.23445742 184.24609375 245.22265625 C182.16215637 247.79949012 180.02772427 250.31948203 177.86816406 252.83251953 C173.40328489 258.03646573 169.16350496 263.3113098 165.1953125 268.91015625 C163.54670722 271.23052418 161.8767923 273.52420285 160.1796875 275.80859375 C146.93190744 293.7314495 134.98873016 312.6138702 124 332 C123.59620117 332.71140137 123.19240234 333.42280273 122.77636719 334.15576172 C117.93128463 342.7224568 113.231503 351.36532637 108.625 360.0625 C108.22023437 360.82353027 107.81546875 361.58456055 107.3984375 362.36865234 C105.0502943 366.83501638 102.90222271 371.35050775 100.88427734 375.9753418 C99.79826434 378.46189779 98.64782897 380.91647444 97.5 383.375 C95.42017139 387.92779556 93.69125979 392.53492682 92.03125 397.25390625 C90.97929595 400.05513238 89.77383256 402.73060581 88.5 405.4375 C86.28403053 410.19372716 84.61974449 414.99893923 83.0234375 419.9921875 C82.02475285 422.92725307 80.86684174 425.72287461 79.625 428.5625 C74.4154446 440.85578011 70.98688468 453.85703418 67.375 466.6875 C67.0980127 467.67129639 66.82102539 468.65509277 66.53564453 469.66870117 C62.89813933 482.75962798 59.66860153 495.82921808 57.29956055 509.20751953 C56.93976902 511.23719984 56.57114015 513.26512146 56.20117188 515.29296875 C54.23659786 526.16060879 52.55430002 537.06661828 51 548 C50.89615997 548.72245911 50.79231995 549.44491821 50.68533325 550.18927002 C47.08602107 575.59753105 46.59204952 601.03053701 46.56609726 626.64671707 C46.56255748 629.14689909 46.55390829 631.64702085 46.54434204 634.14718628 C46.48175325 654.54266611 47.26922115 674.57655609 49.63217163 694.84375 C49.95035446 697.5740031 50.24647911 700.30490168 50.52856445 703.0390625 C51.61748472 713.34231582 53.35600151 723.50745073 55.25 733.6875 C55.40206909 734.51295319 55.55413818 735.33840637 55.71081543 736.18887329 C57.99634137 748.53342645 60.68984846 760.6539678 64.3137207 772.68359375 C66.13992494 778.84760149 67.7585407 785.07241388 69.39453125 791.2890625 C72.23529175 802.02944479 75.35515505 812.55411968 79.24121094 822.96337891 C80.02959287 825.07942847 80.80083037 827.20122996 81.5703125 829.32421875 C83.79284072 835.40944827 86.03025308 841.38697834 89.0859375 847.11328125 C90.17321351 849.35753044 90.94783136 851.63883403 91.75 854 C94.20449824 860.9836319 97.61142012 867.46140047 100.99023438 874.03076172 C102.05436527 876.1060228 103.10847956 878.18596215 104.15625 880.26953125 C104.63288086 881.21662964 104.63288086 881.21662964 105.11914062 882.18286133 C106.52064877 885.07405455 107.73451416 888.0471997 109 891 C124.45314935 922.81325554 144.33113708 953.09434258 166 981 C166.39928711 981.51723633 166.79857422 982.03447266 167.20996094 982.56738281 C170.4359012 986.74169546 173.70646402 990.87886835 177 995 C177.52722656 995.66161133 178.05445313 996.32322266 178.59765625 997.00488281 C186.9344937 1007.42592963 195.74456284 1017.24914681 204.97998047 1026.87841797 C207.02730418 1029.02867698 209.05018318 1031.19948131 211.06640625 1033.37890625 C211.72713135 1034.09167725 212.38785645 1034.80444824 213.06860352 1035.53881836 C214.30747534 1036.87697533 215.54386799 1038.2174343 216.77709961 1039.56079102 C220.39696951 1043.45457483 224.19355588 1046.99788643 228.22802734 1050.45947266 C230.19744716 1052.1716577 232.01664694 1053.98241481 233.8125 1055.875 C237.69860923 1059.82194851 241.90165957 1063.25558955 246.21875 1066.71875 C248.85520005 1068.88123151 251.36868706 1071.12648417 253.875 1073.4375 C259.12165441 1078.21170685 264.70022403 1082.48562301 270.35742188 1086.75146484 C271.92164347 1087.94044065 273.46913595 1089.15133063 275.015625 1090.36328125 C323.63150583 1128.44572123 379.76430329 1158.69112582 438 1179 C439.13211914 1179.39703125 440.26423828 1179.7940625 441.43066406 1180.203125 C455.84811459 1185.22782063 470.30887163 1189.68217039 485.14306641 1193.29833984 C488.03193446 1194.00784307 490.91234937 1194.74606239 493.79296875 1195.48828125 C517.19644497 1201.42693493 540.97289674 1205.46350656 564.9375 1208.3125 C565.94863358 1208.43446747 565.94863358 1208.43446747 566.98019409 1208.55889893 C585.31781179 1210.74017281 603.61218749 1211.17698647 622.0625 1211.125 C623.04457428 1211.1234491 624.02664856 1211.12189819 625.03848267 1211.12030029 C646.43388182 1211.08076406 667.77226643 1210.93127022 689 1208 C689.94794434 1207.87254395 690.89588867 1207.74508789 691.87255859 1207.61376953 C736.71943578 1201.51910358 781.99111412 1192.29777654 824 1175 C826.06051117 1174.20317124 828.12274853 1173.41077586 830.1875 1172.625 C832.45839062 1171.75014869 834.72922165 1170.87514267 837 1170 C838.18851563 1169.54753906 839.37703125 1169.09507813 840.6015625 1168.62890625 C849.41525479 1165.20548261 857.82439063 1161.2394132 866.22851562 1156.91210938 C868.66634291 1155.65691054 871.11297216 1154.41968673 873.5625 1153.1875 C874.26503906 1152.83042969 874.96757813 1152.47335937 875.69140625 1152.10546875 C877.4676243 1151.25492779 879.27701476 1150.47341258 881.09765625 1149.72265625 C908.70268649 1137.97826547 934.53939144 1120.13795254 959 1103 C960.30251709 1102.09024414 960.30251709 1102.09024414 961.63134766 1101.16210938 C970.46378354 1094.96915217 978.97464408 1088.56196424 987.1171875 1081.484375 C989.73645427 1079.22712071 992.40399074 1077.0699524 995.125 1074.9375 C999.74069609 1071.28090959 1004.07672763 1067.36399814 1008.40625 1063.375 C1010.61413423 1061.35332288 1012.85240942 1059.38543478 1015.125 1057.4375 C1018.90761052 1054.1587208 1022.39522375 1050.62372828 1025.90625 1047.05859375 C1027.59301628 1045.40015004 1029.27279121 1043.9005479 1031.125 1042.4375 C1034.11173803 1039.90526558 1036.49460996 1037.20099842 1039.0234375 1034.2265625 C1041.20813972 1031.76553431 1043.51919191 1029.4849599 1045.875 1027.1875 C1050.16532975 1022.94901713 1053.96683458 1018.48299142 1057.7265625 1013.7734375 C1060.01736012 1010.97882185 1062.41500163 1008.3337443 1064.875 1005.6875 C1070.14392989 999.95366453 1074.91901 993.9067992 1079.66064453 987.73779297 C1080.93041062 986.09029114 1082.21111954 984.45205966 1083.49609375 982.81640625 C1094.46348686 968.76059524 1104.51971113 954.09324003 1114 939 C1114.91410645 937.55729736 1114.91410645 937.55729736 1115.84667969 936.08544922 C1127.73939825 917.24217521 1138.11347832 897.78706988 1148.06762695 877.86053467 C1148.95831473 876.08318226 1149.85785078 874.31027225 1150.7578125 872.53759766 C1153.28255827 867.55215072 1155.69802395 862.62912895 1157.625 857.375 C1158.03105469 856.28703125 1158.43710938 855.1990625 1158.85546875 854.078125 C1159.23316406 853.06234375 1159.61085938 852.0465625 1160 851 C1160.63939268 849.37245501 1161.28483285 847.74726733 1161.9375 846.125 C1162.26363281 845.30773437 1162.58976562 844.49046875 1162.92578125 843.6484375 C1163.67833732 841.79304473 1164.44806159 839.94456603 1165.23046875 838.1015625 C1170.45493493 825.54528245 1174.61131715 812.60583891 1178.80566406 799.67773438 C1179.54998684 797.38573145 1180.2985868 795.09510765 1181.05371094 792.80664062 C1185.05450977 780.64711305 1188.10953856 768.57006153 1190.31567383 755.95214844 C1191.148507 751.20870165 1192.04340005 746.6286961 1193.515625 742.0390625 C1195.35977914 736.18580141 1196.16774596 730.25480194 1197 724.1875 C1197.25100464 722.42539185 1197.25100464 722.42539185 1197.50708008 720.62768555 C1197.84727296 718.23499019 1198.18429622 715.84184193 1198.51806641 713.44824219 C1198.96534138 710.24798297 1199.4232108 707.0495055 1199.88671875 703.8515625 C1200.38946882 700.37668981 1200.89193246 696.90179794 1201.38671875 693.42578125 C1201.48170654 692.75973877 1201.57669434 692.09369629 1201.67456055 691.4074707 C1201.78195557 690.61300537 1201.88935059 689.81854004 1202 689 C1202.1662085 687.80584473 1202.33241699 686.61168945 1202.50366211 685.38134766 C1203.11527589 680.42246538 1203.35249725 675.4628978 1203.5546875 670.47265625 C1203.61775589 668.92373436 1203.61775589 668.92373436 1203.68209839 667.34352112 C1204.14529996 654.74438013 1204.15156623 642.14217691 1204.13037109 629.53637695 C1204.12466863 626.11937929 1204.12808447 622.70245934 1204.13379097 619.28546429 C1204.16573738 597.01160606 1203.92711955 574.90430057 1200.875 552.8125 C1200.76806824 552.0186087 1200.66113647 551.22471741 1200.55096436 550.4067688 C1198.11983469 532.45618169 1194.81137854 514.70515205 1191 497 C1190.72961914 495.73929687 1190.45923828 494.47859375 1190.18066406 493.1796875 C1184.27807872 466.18818341 1176.75123192 437.68335313 1165.09375 412.53515625 C1163.60932178 409.0944637 1162.34862677 405.5812099 1161.0625 402.0625 C1159.06351496 396.61226508 1156.83649333 391.46387918 1154.12890625 386.3203125 C1152.96937247 383.93704929 1152.13978796 381.57899453 1151.3125 379.0625 C1148.54090472 371.15791026 1144.34744446 363.9411735 1140.38085938 356.58984375 C1139.01153421 354.02163277 1137.67975524 351.43742411 1136.359375 348.84375 C1130.32994028 337.0332427 1123.72428819 325.73171955 1116.60986328 314.54345703 C1115.04391901 312.06938857 1113.50103778 309.58246989 1111.96484375 307.08984375 C1102.92648244 292.48245108 1092.94552418 278.63672524 1082.3984375 265.0859375 C1080.74232664 262.95511082 1079.10133743 260.81835671 1077.4765625 258.6640625 C1072.95980631 252.69059605 1068.2891528 246.96637142 1063.20703125 241.45703125 C1060.90880871 238.89847907 1058.76719102 236.25260488 1056.625 233.5625 C1052.57447702 228.54891561 1048.15116978 224.05176875 1043.5546875 219.55078125 C1041.43025612 217.42959823 1039.44419404 215.28373032 1037.5 213 C1031.31486535 205.77659335 1024.4469851 199.10087993 1017.21484375 192.93359375 C1014.88697751 190.90132957 1012.62901308 188.80672496 1010.37133789 186.69726562 C1004.1161135 180.85651674 997.6780198 175.35641955 991 170 C989.80726658 169.0172335 988.61594599 168.03275069 987.42578125 167.046875 C965.06865415 148.57843684 941.07870515 131.53127193 915.89990234 117.09570312 C913.75224597 115.85711641 911.62086843 114.59247312 909.48828125 113.328125 C895.47513631 105.09535048 881.01298497 97.8537555 866.43237305 90.69580078 C863.14507468 89.0716757 859.8773324 87.41259546 856.609375 85.75 C852.09226205 83.48787016 847.57723497 81.54389163 842.8125 79.875 C838.82895635 78.45664773 834.93821764 76.99067963 831.109375 75.19140625 C824.53917603 72.2273434 817.65795271 70.09556331 810.8190918 67.84594727 C808.46574479 67.07179139 806.11453857 66.2914171 803.76367188 65.50976562 C783.12670879 58.63012712 783.12670879 58.63012712 762.125 53 C761.07256104 52.75072754 760.02012207 52.50145508 758.93579102 52.24462891 C748.06386567 49.71350502 737.12774719 47.56023749 726.14501953 45.5703125 C724.10849584 45.20101275 722.07293321 44.82635649 720.03857422 44.4453125 C703.66888996 41.38793956 687.24600052 39.65010136 670.66186523 38.29858398 C668.40236447 38.11434707 666.14374033 37.91840989 663.88696289 37.70336914 C652.41090848 36.7033958 640.90231761 36.81393621 629.39135742 36.81469727 C625.73409073 36.81252764 622.0771348 36.79436801 618.41992188 36.77539062 C602.85114234 36.73748225 587.49003582 37.43753674 572 39 Z " fill="#FCFCFC" transform="translate(0,0)"/>
<path d="M0 0 C0 113.19 0 226.38 0 343 C89.43 343 178.86 343 271 343 C270.28759312 278.6611183 270.28759312 278.6611183 269.37841797 214.32495117 C269.29711914 201.86975098 269.29711914 201.86975098 269.28201294 196.03535461 C269.26526429 191.96653428 269.19794405 187.90195695 269.09963989 183.83430481 C268.9757167 178.63736794 268.93922335 173.44655546 268.96469903 168.24827826 C268.95937746 166.34599804 268.9239029 164.44349411 268.85412765 162.54248655 C268.44970582 150.98272913 268.44970582 150.98272913 271 146 C275.37744563 141.44587648 281.00650234 138.79455998 286.6635344 136.15730536 C290.43336551 134.29002096 293.88677692 131.9661765 297.375 129.625 C298.15294922 129.1204126 298.93089844 128.6158252 299.73242188 128.09594727 C300.34666016 127.69432373 300.96089844 127.2927002 301.59375 126.87890625 C302.30789063 126.41242676 303.02203125 125.94594727 303.7578125 125.46533203 C304.49773437 124.98177246 305.23765625 124.49821289 306 124 C318.15992915 116.0636528 330.36079863 108.20309417 342.65429688 100.47509766 C346.54319999 98.02955721 350.42808191 95.57765623 354.3125 93.125 C355.09077148 92.63362549 355.86904297 92.14225098 356.67089844 91.63598633 C362.725572 87.81071329 368.77062989 83.97045754 374.8125 80.125 C375.71758301 79.54935303 376.62266602 78.97370605 377.55517578 78.38061523 C382.43605255 75.27479863 387.31117754 72.16032693 392.1796875 69.03515625 C393.18539795 68.3911084 394.1911084 67.74706055 395.22729492 67.08349609 C397.16406715 65.84300346 399.09919584 64.59994008 401.0324707 63.35400391 C402.33704224 62.5194165 402.33704224 62.5194165 403.66796875 61.66796875 C404.81688599 60.92969849 404.81688599 60.92969849 405.98901367 60.17651367 C408 59 408 59 411 58 C411.22252729 115.72824439 411.42949681 173.4565322 411.55046082 231.18508911 C411.55225556 232.03941923 411.5540503 232.89374935 411.55589943 233.77396826 C411.59480677 252.34063512 411.6308192 270.90730654 411.66384928 289.47398477 C411.68006473 298.57901169 411.69691992 307.68403737 411.71411133 316.7890625 C411.71666113 318.14815539 411.71666113 318.14815539 411.71926244 319.53470469 C411.77466518 348.9055792 411.87231567 378.27612869 411.99186387 407.64680628 C412.11448701 437.82773686 412.19451048 468.00848755 412.22089487 498.18966304 C412.22464091 502.45202562 412.22887419 506.7143876 412.23340416 510.97674942 C412.23428066 511.81564753 412.23515716 512.65454564 412.23606022 513.51886491 C412.25142579 527.02576665 412.31172815 540.53211235 412.38881644 554.03878728 C412.46534896 567.61598913 412.4945847 581.19263949 412.47551791 594.7700495 C412.46562583 602.83826372 412.4920196 610.90446038 412.57036806 618.9723104 C412.62487229 624.99614807 412.61149645 631.01782014 412.57168563 637.04185642 C412.5661839 639.47948903 412.58275643 641.91729084 412.62348137 644.35458945 C412.92536938 663.5353383 412.92536938 663.5353383 408.14674509 668.5999949 C405.01616538 671.27784888 401.65537798 673.12382849 398 675 C396.59813402 676.00518659 395.21143306 677.03321747 393.86328125 678.109375 C392.68002809 678.99004114 391.49643634 679.87025252 390.3125 680.75 C384.37895187 685.17660367 378.51906667 689.69003291 372.6875 694.25 C368.00879126 697.90814054 363.32821852 701.53965349 358.5 705 C353.7815468 708.38466552 349.2002347 711.92587515 344.625 715.5 C341.41747786 718.00104218 338.20909895 720.50098135 335 723 C334.07574219 723.72010254 333.15148437 724.44020508 332.19921875 725.18212891 C329.34654001 727.39932424 326.48664122 729.60688916 323.625 731.8125 C322.7273291 732.51246094 321.8296582 733.21242188 320.90478516 733.93359375 C320.06222168 734.58070313 319.2196582 735.2278125 318.3515625 735.89453125 C317.23515381 736.75848511 317.23515381 736.75848511 316.09619141 737.63989258 C314.02162978 738.98596559 312.41785263 739.57197381 310 740 C310 740.66 310 741.32 310 742 C307.72436546 743.85297294 305.43627132 745.59258679 303.0625 747.3125 C301.59962048 748.38975652 300.13740388 749.46791374 298.67578125 750.546875 C297.91088379 751.10955078 297.14598633 751.67222656 296.35791016 752.25195312 C292.45525904 755.14520038 288.60316929 758.10385394 284.75 761.0625 C282.72055341 762.61887465 280.69103415 764.17509886 278.65820312 765.72705078 C277.30931132 766.76255164 275.97301617 767.81444579 274.640625 768.87109375 C273 770 273 770 271 770 C271 667.37 271 564.74 271 459 C181.24 459 91.48 459 -1 459 C-0.40633283 523.33846704 -0.40633283 523.33846704 0.35131836 587.67504883 C0.41906738 600.13024902 0.41906738 600.13024902 0.43165588 605.96464539 C0.4456112 610.03291487 0.5017172 614.09823695 0.58363342 618.16569519 C0.68689308 623.36214557 0.71731021 628.55434064 0.69608414 633.75172174 C0.70051853 635.65389513 0.73007229 637.55622407 0.78822696 639.45751345 C1.19141323 653.28684272 1.19141323 653.28684272 -2.481673 657.83443809 C-6.04840279 661.15385122 -10.00745448 663.66968111 -14.25874794 666.02075517 C-16.4565751 667.25676857 -18.46336765 668.6974316 -20.48046875 670.20703125 C-21.715083 671.07703106 -22.95074687 671.94554343 -24.1875 672.8125 C-25.22596069 673.54351929 -25.22596069 673.54351929 -26.28540039 674.28930664 C-30.14793443 677.00598846 -34.01800949 679.71177642 -37.890625 682.4140625 C-48.25575117 689.64859209 -58.55371139 696.96471452 -68.78222656 704.39111328 C-72.51689268 707.10043183 -76.25878073 709.79974166 -80 712.5 C-84.51395745 715.75863711 -89.02687676 719.01866668 -93.53515625 722.28515625 C-104.38448106 730.14188635 -115.30626093 737.89002519 -126.265625 745.59228516 C-128.53193908 747.18554635 -130.7972295 748.78025556 -133.0625 750.375 C-134.07969116 751.08861694 -134.07969116 751.08861694 -135.11743164 751.81665039 C-139.27111236 754.74127998 -143.33053753 757.75698928 -147.33374023 760.88525391 C-149 762 -149 762 -151 762 C-151.23995836 701.34455472 -151.46255039 640.68905557 -151.59280396 580.03326416 C-151.59473675 579.13550829 -151.59666955 578.23775243 -151.59866092 577.31279184 C-151.64056185 557.80203225 -151.67934437 538.29126764 -151.71491461 518.78049551 C-151.73237729 509.21238652 -151.75052905 499.64427889 -151.76904297 490.07617188 C-151.7708736 489.12403135 -151.77270422 488.17189082 -151.77459032 487.19089754 C-151.83424697 456.33042836 -151.93940317 425.47031811 -152.06816109 394.61006637 C-152.20023885 362.89651744 -152.28640102 331.18316714 -152.31480986 299.46934783 C-152.31884401 294.98978047 -152.32340293 290.51021379 -152.3282814 286.03064728 C-152.32969729 284.70818588 -152.32969729 284.70818588 -152.33114177 283.35900809 C-152.34768459 269.16811687 -152.41261276 254.97783988 -152.49564848 240.78719913 C-152.57809968 226.51990303 -152.60954487 212.25321571 -152.58901928 197.98568973 C-152.5783722 189.50900455 -152.60673679 181.03454776 -152.6911656 172.55826514 C-152.74374029 166.89276148 -152.74524412 161.22871354 -152.70564539 155.5631086 C-152.68453711 152.33555547 -152.69301283 149.11304505 -152.74836455 145.88577649 C-153.07333889 125.76844306 -153.07333889 125.76844306 -147.9486239 119.90054369 C-145.09985178 117.21383501 -142.04813363 115.0478516 -138.69381954 113.03934959 C-136.2664752 111.54989969 -134.121885 109.75822186 -131.9375 107.9375 C-131.15117187 107.31617188 -130.36484375 106.69484375 -129.5546875 106.0546875 C-125.94067858 103.14800755 -122.41603007 100.13991503 -118.88427734 97.13427734 C-115.47511594 94.23683996 -112.03638783 91.38247953 -108.5625 88.5625 C-104.31607242 85.10725543 -100.14711576 81.57293424 -96 78 C-89.22270425 72.163077 -82.31715802 66.49728231 -75.3671875 60.8671875 C-69.56424032 56.14700597 -63.86083217 51.32628753 -58.19433594 46.44433594 C-53.77652099 42.64554706 -49.29019638 38.94078434 -44.765625 35.26953125 C-41.70632043 32.75900024 -38.69693691 30.19480056 -35.6875 27.625 C-30.64695379 23.32842371 -25.49235909 19.20649266 -20.25756836 15.1496582 C-15.40188905 11.36787685 -10.71087212 7.41195111 -6.0859375 3.3515625 C-2.21345766 0 -2.21345766 0 0 0 Z " fill="#08AEF9" transform="translate(498,226)"/>
<path d="M0 0 C0.18311157 43.67028181 0.32407756 87.34052298 0.40852264 131.01111301 C0.41852829 136.16683313 0.42888287 141.32255249 0.43945312 146.47827148 C0.44155161 147.50468217 0.44365009 148.53109286 0.44581217 149.5886069 C0.48062258 166.2080839 0.54369903 182.82733952 0.61722237 199.44668519 C0.69203518 216.49973197 0.73647035 233.55266281 0.75270796 250.60586697 C0.76368493 261.12871191 0.79835333 271.65093113 0.86333174 282.17358346 C0.9056204 289.38942375 0.9184007 296.60494057 0.90801102 303.82089578 C0.90288678 307.98436277 0.91073864 312.14673645 0.9536438 316.310009 C0.99266983 320.12478143 0.99448548 323.93772904 0.96719116 327.75258673 C0.96222726 329.78007474 0.99665279 331.80754224 1.03265047 333.83471674 C0.94817359 340.2849247 0.49846419 344.20862149 -3.86481476 349.13386631 C-5.23424484 350.43210006 -6.61217612 351.72144827 -8 353 C-9.06934456 354.31123965 -10.11563137 355.64205221 -11.125 357 C-14.55661469 361.48930415 -18.14585044 365.83678349 -21.75 370.1875 C-26.15475754 375.5089926 -30.5049539 380.86267521 -34.75 386.3125 C-38.93239881 391.68008931 -43.22845957 396.92957155 -47.60546875 402.140625 C-49.90619584 404.88798589 -52.17599389 407.65781576 -54.4375 410.4375 C-57.70044647 414.44020059 -61.02275594 418.38494554 -64.375 422.3125 C-68.67248509 427.35437224 -72.79194714 432.51257061 -76.85473633 437.74462891 C-80.60159744 442.54809005 -84.49925133 447.20887724 -88.47265625 451.82617188 C-90.47232151 454.15613898 -92.29338389 456.44007583 -94 459 C-62.98 459 -31.96 459 0 459 C0.60454551 507.95923035 0.60454551 507.95923035 0.73242188 528.49023438 C0.82139855 542.6618805 0.9259399 556.83218805 1.1315918 571.00268555 C1.28130493 581.32364548 1.37791953 591.64351877 1.41132742 601.96553439 C1.43085214 607.42951594 1.47657846 612.89038953 1.58595085 618.35337257 C1.68818229 623.50164257 1.7190999 628.6455425 1.69661522 633.79473114 C1.70072453 635.67865755 1.73034048 637.56273781 1.78808212 639.44578362 C2.19149447 653.28674214 2.19149447 653.28674214 -1.481673 657.83443809 C-5.04840279 661.15385122 -9.00745448 663.66968111 -13.25874794 666.02075517 C-15.4565751 667.25676857 -17.46336765 668.6974316 -19.48046875 670.20703125 C-20.715083 671.07703106 -21.95074687 671.94554343 -23.1875 672.8125 C-24.22596069 673.54351929 -24.22596069 673.54351929 -25.28540039 674.28930664 C-29.14793443 677.00598846 -33.01800949 679.71177642 -36.890625 682.4140625 C-47.25575117 689.64859209 -57.55371139 696.96471452 -67.78222656 704.39111328 C-71.51689268 707.10043183 -75.25878073 709.79974166 -79 712.5 C-83.51395745 715.75863711 -88.02687676 719.01866668 -92.53515625 722.28515625 C-103.38448106 730.14188635 -114.30626093 737.89002519 -125.265625 745.59228516 C-127.53193908 747.18554635 -129.7972295 748.78025556 -132.0625 750.375 C-133.07969116 751.08861694 -133.07969116 751.08861694 -134.11743164 751.81665039 C-138.27111236 754.74127998 -142.33053753 757.75698928 -146.33374023 760.88525391 C-148 762 -148 762 -150 762 C-150.23995836 701.34455472 -150.46255039 640.68905557 -150.59280396 580.03326416 C-150.59473675 579.13550829 -150.59666955 578.23775243 -150.59866092 577.31279184 C-150.64056185 557.80203225 -150.67934437 538.29126764 -150.71491461 518.78049551 C-150.73237729 509.21238652 -150.75052905 499.64427889 -150.76904297 490.07617188 C-150.7708736 489.12403135 -150.77270422 488.17189082 -150.77459032 487.19089754 C-150.83424697 456.33042836 -150.93940317 425.47031811 -151.06816109 394.61006637 C-151.20023885 362.89651744 -151.28640102 331.18316714 -151.31480986 299.46934783 C-151.31884401 294.98978047 -151.32340293 290.51021379 -151.3282814 286.03064728 C-151.32969729 284.70818588 -151.32969729 284.70818588 -151.33114177 283.35900809 C-151.34768459 269.16811687 -151.41261276 254.97783988 -151.49564848 240.78719913 C-151.57809968 226.51990303 -151.60954487 212.25321571 -151.58901928 197.98568973 C-151.5783722 189.50900455 -151.60673679 181.03454776 -151.6911656 172.55826514 C-151.74374029 166.89276148 -151.74524412 161.22871354 -151.70564539 155.5631086 C-151.68453711 152.33555547 -151.69301283 149.11304505 -151.74836455 145.88577649 C-152.07333889 125.76844306 -152.07333889 125.76844306 -146.9486239 119.90054369 C-144.09985178 117.21383501 -141.04813363 115.0478516 -137.69381954 113.03934959 C-135.2664752 111.54989969 -133.121885 109.75822186 -130.9375 107.9375 C-130.15117187 107.31617188 -129.36484375 106.69484375 -128.5546875 106.0546875 C-124.94067858 103.14800755 -121.41603007 100.13991503 -117.88427734 97.13427734 C-114.47511594 94.23683996 -111.03638783 91.38247953 -107.5625 88.5625 C-103.31607242 85.10725543 -99.14711576 81.57293424 -95 78 C-88.22270425 72.163077 -81.31715802 66.49728231 -74.3671875 60.8671875 C-68.56424032 56.14700597 -62.86083217 51.32628753 -57.19433594 46.44433594 C-52.77652099 42.64554706 -48.29019638 38.94078434 -43.765625 35.26953125 C-40.70632043 32.75900024 -37.69693691 30.19480056 -34.6875 27.625 C-29.64733905 23.32875211 -24.49162108 19.20933729 -19.25976562 15.1496582 C-14.38839279 11.35192829 -9.66994632 7.39154028 -4.99804688 3.3515625 C-1.10099546 0 -1.10099546 0 0 0 Z " fill="#F3F4F7" transform="translate(497,226)"/>
<path d="M0 0 C0.33 0.99 0.66 1.98 1 3 C0.10539062 3.56847656 -0.78921875 4.13695312 -1.7109375 4.72265625 C-8.21806767 8.87332083 -14.65335073 13.07059276 -20.9140625 17.58984375 C-22.89122121 18.92646228 -24.84709022 19.97835442 -27 21 C-31.37746556 23.32273683 -35.27846521 25.90626358 -39.25 28.875 C-43.65785254 32.13297797 -48.11871274 34.75875747 -52.96484375 37.296875 C-58.61731169 40.46865881 -63.92769727 44.1837895 -69.27978516 47.83300781 C-70.9738598 48.98226651 -72.67874844 50.1137162 -74.38671875 51.2421875 C-76.82440649 52.76038426 -76.82440649 52.76038426 -78 54 C-78.10346902 56.49722707 -78.14158945 58.96712492 -78.13803101 61.46505737 C-78.14085229 62.25600426 -78.14367357 63.04695114 -78.14658034 63.86186612 C-78.15496491 66.53275769 -78.15626786 69.20360803 -78.15771484 71.87451172 C-78.1623802 73.78109861 -78.16752329 75.68768439 -78.17311096 77.5942688 C-78.18441327 81.71019258 -78.19283708 85.82610902 -78.19923019 89.9420433 C-78.20988197 96.44553093 -78.23011869 102.94896602 -78.25234985 109.4524231 C-78.3143708 127.94921466 -78.36831997 146.44600344 -78.40136719 164.94287109 C-78.41968525 175.15063524 -78.4485856 185.35831177 -78.4893719 195.56601155 C-78.51048934 200.97248546 -78.52590584 206.37884872 -78.52817917 211.78536606 C-78.53031932 216.86937429 -78.54612358 221.95315215 -78.57256889 227.0370903 C-78.57978761 228.9063846 -78.58185049 230.77570673 -78.57846642 232.6450119 C-78.57459314 235.19060882 -78.58895601 237.73546211 -78.60800171 240.28097534 C-78.60247201 241.02639867 -78.59694232 241.77182199 -78.59124506 242.5398339 C-78.62754024 245.33648169 -78.71021949 247.49638667 -80.12246609 249.95074844 C-82.91208641 251.50971547 -85.24540133 251.43851215 -88.43254089 251.50704956 C-89.09138877 251.5246833 -89.75023665 251.54231703 -90.42904961 251.56048512 C-92.65341044 251.61522507 -94.87749226 251.64762223 -97.10229492 251.67919922 C-98.71053814 251.71192905 -100.31876702 251.74536995 -101.92698193 251.77946281 C-122.60278496 252.18269209 -143.28639633 252.14646357 -163.96517587 252.1343255 C-169.76358345 252.13174377 -175.56198967 252.13415459 -181.36039734 252.13571167 C-191.06294038 252.13751371 -200.76547572 252.13517616 -210.46801758 252.13037109 C-221.644041 252.12489985 -232.82004625 252.12671968 -243.99606925 252.1321975 C-253.66998712 252.13674659 -263.34389956 252.13737136 -273.01781815 252.13475883 C-278.76283611 252.13321007 -284.50784554 252.13296416 -290.25286293 252.13629532 C-295.63686407 252.13920146 -301.02084183 252.13714836 -306.40484047 252.13140106 C-308.36750246 252.1300895 -310.33016644 252.13043997 -312.29282761 252.13266373 C-323.24288276 252.1439197 -334.08402558 251.91433071 -345 251 C-343 249 -343 249 -341.07806337 248.75160301 C-340.28596676 248.75236245 -339.49387015 248.75312189 -338.67777061 248.75390434 C-337.76462227 248.74992225 -336.85147393 248.74594015 -335.91065443 248.74183738 C-334.9009426 248.74766307 -333.89123078 248.75348875 -332.85092163 248.75949097 C-331.78340562 248.75778212 -330.7158896 248.75607327 -329.61602461 248.75431263 C-326.01527115 248.75100103 -322.41470133 248.7620489 -318.81396484 248.77294922 C-316.24227401 248.77351297 -313.67058286 248.77319748 -311.09889221 248.77206421 C-305.55004324 248.77101399 -300.00124119 248.77730482 -294.45240402 248.78853989 C-286.42966086 248.80477347 -278.40694046 248.81000069 -270.38418265 248.81251587 C-257.3687391 248.81689635 -244.35332058 248.83021499 -231.33789062 248.84912109 C-218.69238409 248.86747079 -206.04688434 248.88163174 -193.40136719 248.89013672 C-192.23274659 248.89092489 -192.23274659 248.89092489 -191.04051749 248.89172898 C-187.13221621 248.894339 -183.22391487 248.89686643 -179.31561351 248.89935279 C-146.87705745 248.92009626 -114.43853207 248.95533136 -82 249 C-82.01659227 247.99485446 -82.03318455 246.98970892 -82.05027962 245.95410442 C-82.45022049 221.47448867 -82.74582094 196.99529738 -82.93261909 172.51310253 C-83.02536115 160.67332404 -83.15174201 148.83570593 -83.35791016 136.99731445 C-83.53756599 126.67635008 -83.65350161 116.35695015 -83.69359291 106.03446561 C-83.71702516 100.56988214 -83.77189025 95.10977306 -83.90314102 89.64662743 C-84.02583078 84.4978524 -84.06292465 79.35536683 -84.03593826 74.20526886 C-84.04086971 72.32123588 -84.0764189 70.43698162 -84.14569855 68.55421638 C-84.55040953 56.98295449 -84.55040953 56.98295449 -82 52 C-77.62255437 47.44587648 -71.99349766 44.79455998 -66.3364656 42.15730536 C-62.56663449 40.29002096 -59.11322308 37.9661765 -55.625 35.625 C-54.84705078 35.1204126 -54.06910156 34.6158252 -53.26757812 34.09594727 C-52.65333984 33.69432373 -52.03910156 33.2927002 -51.40625 32.87890625 C-50.69210937 32.41242676 -49.97796875 31.94594727 -49.2421875 31.46533203 C-48.50226563 30.98177246 -47.76234375 30.49821289 -47 30 C-31.43216046 19.8394326 -15.76979549 9.84411066 0 0 Z " fill="#03CDED" transform="translate(851,320)"/>
<path d="M0 0 C0.33 0 0.66 0 1 0 C1.33 28.38 1.66 56.76 2 86 C2.33 86 2.66 86 3 86 C3.02336127 113.63358348 3.04099506 141.26716547 3.05181217 168.90075684 C3.05696826 181.73153005 3.06399789 194.56229713 3.07543945 207.39306641 C3.08540725 218.57646851 3.09185843 229.75986617 3.09408849 240.94327259 C3.09539203 246.86466332 3.09845537 252.78604133 3.10573006 258.70742798 C3.11252331 264.28216708 3.11461021 269.85688824 3.11310768 275.43163109 C3.11338252 277.47621953 3.11536802 279.52080859 3.11920547 281.56539345 C3.12419433 284.3608376 3.12297915 287.15621438 3.12025452 289.95166016 C3.12316736 290.75712941 3.1260802 291.56259867 3.12908131 292.39247608 C3.11606891 297.34564063 2.7032579 302.09562981 2 307 C2.763125 306.484375 3.52625 305.96875 4.3125 305.4375 C5.199375 304.963125 6.08625 304.48875 7 304 C7.99 304.33 8.98 304.66 10 305 C8.71283353 306.00578589 7.42011342 307.00446798 6.125 308 C5.04605469 308.8353125 5.04605469 308.8353125 3.9453125 309.6875 C2 311 2 311 0 311 C0 208.37 0 105.74 0 0 Z " fill="#0380E2" transform="translate(769,685)"/>
<path d="M0 0 C0.495 1.485 0.495 1.485 1 3 C-0.34191406 3.85271484 -0.34191406 3.85271484 -1.7109375 4.72265625 C-8.21806767 8.87332083 -14.65335073 13.07059276 -20.9140625 17.58984375 C-22.89122121 18.92646228 -24.84709022 19.97835442 -27 21 C-31.37746556 23.32273683 -35.27846521 25.90626358 -39.25 28.875 C-43.65785254 32.13297797 -48.11871274 34.75875747 -52.96484375 37.296875 C-58.61731169 40.46865881 -63.92769727 44.1837895 -69.27978516 47.83300781 C-70.9738598 48.98226651 -72.67874844 50.1137162 -74.38671875 51.2421875 C-76.82440649 52.76038426 -76.82440649 52.76038426 -78 54 C-78.11011819 56.50374703 -78.15496024 58.98050539 -78.15821838 61.48524475 C-78.16315636 62.27830833 -78.16809434 63.07137192 -78.17318195 63.88846773 C-78.18863413 66.5663493 -78.19693833 69.24420677 -78.20532227 71.92211914 C-78.21489474 73.83357457 -78.22490443 75.74502786 -78.23532104 77.65647888 C-78.26244461 82.86285153 -78.28341369 88.06923331 -78.30332303 93.27563787 C-78.32513679 98.71025984 -78.35254795 104.14485342 -78.37937927 109.57945251 C-78.4293687 119.878367 -78.47428426 130.17729719 -78.51740164 140.47624248 C-78.56672071 152.19794773 -78.62165854 163.9196245 -78.67708123 175.64130223 C-78.79099719 199.7608416 -78.89781518 223.88040828 -79 248 C-79.66 248.33 -80.32 248.66 -81 249 C-81.35062963 223.48761797 -81.6150237 197.9755977 -81.77718258 172.46129036 C-81.85448303 160.61399858 -81.95983597 148.76820499 -82.1315918 136.921875 C-82.28125037 126.59469881 -82.37790662 116.26860758 -82.41132742 105.94037712 C-82.43086135 100.47251726 -82.47664666 95.00776073 -82.58595085 89.54089737 C-82.68809589 84.39016855 -82.71911718 79.24380665 -82.69661522 74.09216118 C-82.70072836 72.20620245 -82.73039601 70.3200917 -82.78808212 68.43501091 C-83.19130836 54.57355604 -83.19130836 54.57355604 -79.52537656 50.26814604 C-75.95198918 47.17542094 -72.01125674 44.94270711 -67.77628529 42.88206649 C-65.42562521 41.71477737 -63.26433123 40.30902899 -61.08203125 38.85546875 C-59.65987666 37.96451163 -58.23670291 37.07517918 -56.8125 36.1875 C-50.16781307 32.01892491 -43.56796275 27.78840674 -37 23.5 C-24.7626813 15.51403156 -12.39536514 7.73766192 0 0 Z " fill="#04D9F5" transform="translate(851,320)"/>
<path d="M0 0 C0 95.7 0 191.4 0 290 C-0.33 290 -0.66 290 -1 290 C-1.1581058 277.72930632 -1.30124756 265.45845473 -1.4375 253.1875 C-1.45403185 251.69947309 -1.45403185 251.69947309 -1.47089767 250.18138504 C-2.04601562 197.9349387 -2.29329941 145.68622166 -2.5625 93.4375 C-2.56804948 92.3615657 -2.57359897 91.2856314 -2.57931662 90.17709303 C-2.72395142 62.11808368 -2.86418896 34.05905342 -3 6 C-3.99 5.67 -4.98 5.34 -6 5 C-5 2 -5 2 -3 0.8125 C-1 0 -1 0 0 0 Z " fill="#02DFFC" transform="translate(909,284)"/>
<path d="M0 0 C1.875 0.8125 1.875 0.8125 2.875 2.8125 C2.153125 2.874375 1.43125 2.93625 0.6875 3 C-3.76094576 4.28510655 -6.20399197 7.21467051 -8.48046875 11.1640625 C-10.31559138 14.11943814 -12.41658602 16.41746489 -14.8125 18.9375 C-18.92877499 23.38688395 -22.49873197 27.97479989 -25.9921875 32.91796875 C-31.16974859 39.9446588 -37.03911876 46.46210709 -42.8125 53 C-47.50584619 58.33642488 -52.16080026 63.7794852 -56.02734375 69.75 C-58.26141258 73.01165728 -60.78265962 75.83527612 -63.5 78.6875 C-67.22088476 82.66457279 -70.68676976 86.67568814 -73.87890625 91.09765625 C-75.82716462 93.77880178 -77.98973945 96.28037165 -80.125 98.8125 C-81.69259806 100.68323985 -83.25465558 102.55863013 -84.8125 104.4375 C-85.57949219 105.35789062 -86.34648437 106.27828125 -87.13671875 107.2265625 C-88.8011117 109.39125431 -90.03360022 111.3262096 -91.125 113.8125 C-90.465 114.1425 -89.805 114.4725 -89.125 114.8125 C-91.105 114.8125 -93.085 114.8125 -95.125 114.8125 C-93.49331478 110.95914168 -90.910109 108.05221748 -88.1875 104.9375 C-84.22833148 100.34036739 -80.40082611 95.67270101 -76.6875 90.875 C-72.48554689 85.45928294 -68.10091804 80.24050472 -63.60791016 75.06494141 C-59.65323345 70.48631312 -55.90634132 65.77214497 -52.19921875 60.9921875 C-49.10194697 57.0137953 -45.90493297 53.14131734 -42.625 49.3125 C-38.35686827 44.32909819 -34.2768467 39.22646376 -30.25219727 34.04516602 C-26.68689119 29.47586975 -22.97050264 25.05675272 -19.19726562 20.65869141 C-15.42983108 16.23940938 -11.87299544 11.67878068 -8.38452148 7.03686523 C-2.88187664 -0.25428323 -2.88187664 -0.25428323 0 0 Z " fill="#1A89E3" transform="translate(499.125,569.1875)"/>
<path d="M0 0 C0.33 0 0.66 0 1 0 C1.21038674 15.02054882 1.36901899 30.04098335 1.46630955 45.06269264 C1.51268792 52.03790203 1.57589573 59.0121952 1.67895508 65.98681641 C1.77835815 72.71721365 1.83054995 79.44646241 1.85389519 86.17762375 C1.8705322 88.74619918 1.90302148 91.31472215 1.95157051 93.88289261 C2.01686741 97.47987873 2.02590408 101.07292726 2.02172852 104.67041016 C2.054086 105.73352417 2.08644348 106.79663818 2.11978149 107.89196777 C2.03056427 114.98991159 2.03056427 114.98991159 -1.07231331 118.03113937 C-3.32604187 119.54803473 -5.5462319 120.83941138 -8 122 C-8 121.01 -8 120.02 -8 119 C-5.46815512 116.64276511 -4.52809907 116 -1 116 C-1.00092179 115.42646915 -1.00184359 114.85293831 -1.00279331 114.26202774 C-1.02487662 100.30745163 -1.04136145 86.35287857 -1.05181217 72.39828873 C-1.05696869 65.64995954 -1.06399914 58.90164201 -1.07543945 52.15332031 C-1.08647016 45.6435119 -1.09228089 39.13371106 -1.09487724 32.62389374 C-1.09672805 30.13754841 -1.1003421 27.65120376 -1.10573006 25.16486359 C-1.11296561 21.68834487 -1.11398987 18.21187657 -1.11352539 14.73535156 C-1.11712067 13.70244995 -1.12071594 12.66954834 -1.12442017 11.60534668 C-1.12235817 10.18352081 -1.12235817 10.18352081 -1.12025452 8.73297119 C-1.12117631 7.91073185 -1.1220981 7.08849251 -1.12304783 6.24133682 C-1.00198653 4.03618505 -0.61176338 2.11694269 0 0 Z " fill="#0090FD" transform="translate(908,775)"/>
<path d="M0 0 C46.53 0.495 46.53 0.495 94 1 C94 1.66 94 2.32 94 3 C37.16498985 4.09593733 37.16498985 4.09593733 19.375 4.125 C18.27325439 4.12951172 17.17150879 4.13402344 16.03637695 4.13867188 C10.9148404 4.12871183 6.04632414 3.89052779 1 3 C0.67 2.01 0.34 1.02 0 0 Z " fill="#C4C7CF" transform="translate(402,684)"/>
<path d="M0 0 C0.66 0.33 1.32 0.66 2 1 C-0.55843076 4.0851665 -3.12840618 7.15582447 -5.75 10.1875 C-8.366649 13.22792506 -10.90605035 16.32583694 -13.4375 19.4375 C-16.12982372 22.74417947 -18.85309821 26.00193338 -21.6875 29.1875 C-24.48780588 32.34913567 -27.02138937 35.64076828 -29.515625 39.046875 C-31.48235231 41.63467409 -33.62063035 44.04799311 -35.80078125 46.45703125 C-37.2204341 48.10715321 -37.2204341 48.10715321 -38 51 C-37.34 51.33 -36.68 51.66 -36 52 C-37.98 52 -39.96 52 -42 52 C-40.36831478 48.14664168 -37.785109 45.23971748 -35.0625 42.125 C-31.10332245 37.52785691 -27.27600722 32.86007035 -23.5625 28.0625 C-18.39872644 21.41179056 -12.96536433 15.01863897 -7.44287109 8.66455078 C-4.94896744 5.787489 -2.47505975 2.89327262 0 0 Z " fill="#137FE1" transform="translate(446,632)"/>
<path d="M0 0 C4.52085371 0.11813019 9.04148214 0.24236976 13.56201172 0.37231445 C15.10037653 0.41566926 16.63878963 0.45734395 18.17724609 0.49731445 C20.3865414 0.55500398 22.59559348 0.61870179 24.8046875 0.68359375 C25.49432587 0.70030624 26.18396423 0.71701874 26.89450073 0.73423767 C31.77225659 0.88612829 31.77225659 0.88612829 34 2 C36.76931368 2.15691907 39.51734107 2.25843134 42.2890625 2.31640625 C43.51669815 2.3475779 43.51669815 2.3475779 44.76913452 2.37937927 C47.38766966 2.44484812 50.00630639 2.50374726 52.625 2.5625 C54.39844807 2.60568776 56.17188581 2.64930214 57.9453125 2.69335938 C62.29677046 2.80052676 66.64833077 2.90180169 71 3 C71 3.33 71 3.66 71 4 C64.9392119 4.02511643 58.87845548 4.04305232 52.81762695 4.05493164 C50.7648872 4.05989498 48.71215084 4.06666782 46.65942383 4.07543945 C36.2475807 4.11874783 25.85733811 4.09762053 15.45703125 3.55859375 C14.3228199 3.50011009 14.3228199 3.50011009 13.16569519 3.44044495 C8.72957761 3.18102048 4.39038897 2.68718191 0 2 C0 1.34 0 0.68 0 0 Z " fill="#333744" transform="translate(574,1207)"/>
<path d="M0 0 C0.33 0 0.66 0 1 0 C1.31958398 8.29303441 1.58927458 16.58567063 1.80111694 24.88208008 C1.90523902 28.87413616 2.02916153 32.86389443 2.19238281 36.85400391 C2.35517721 40.84069067 2.47312663 44.82652229 2.56176758 48.81552124 C2.60373419 50.34829508 2.66170251 51.88071888 2.73608398 53.41226196 C3.30866829 65.52033738 3.30866829 65.52033738 -0.04785156 69.31542969 C-2.31932728 70.84429045 -4.45130756 72.01235771 -7 73 C-7 72.01 -7 71.02 -7 70 C-4.46815512 67.64276511 -3.52809907 67 0 67 C0 44.89 0 22.78 0 0 Z " fill="#0084F9" transform="translate(907,824)"/>
<path d="M0 0 C-3.74150311 4.19048348 -8.2203635 6.52234937 -13.1015625 9.1171875 C-18.29183555 11.92323618 -23.06966312 15.06673815 -27.8359375 18.546875 C-30 20 -30 20 -33 21 C-33.66 20.34 -34.32 19.68 -35 19 C-34.27635254 18.56300781 -34.27635254 18.56300781 -33.53808594 18.1171875 C-31.27369506 16.74757019 -29.0116033 15.37421549 -26.75 14 C-25.93184814 13.50395264 -25.11369629 13.00790527 -24.27075195 12.49682617 C-18.51565263 8.98588207 -12.95259195 5.3035258 -7.48046875 1.36328125 C-4.72492392 -0.15118355 -3.09445655 -0.2944456 0 0 Z " fill="#03D0E9" transform="translate(887,300)"/>
<path d="M0 0 C2.0625 0.25 2.0625 0.25 4 1 C4.33 1.66 4.66 2.32 5 3 C4.278125 3.061875 3.55625 3.12375 2.8125 3.1875 C-2.7455462 4.79315779 -5.19077064 9.28049467 -8 14 C-9.93630112 16.3904336 -11.95436594 18.7027993 -14 21 C-14.33 20.01 -14.66 19.02 -15 18 C-13.9519043 16.22241211 -13.9519043 16.22241211 -12.32421875 14.27734375 C-11.74349609 13.57416016 -11.16277344 12.87097656 -10.56445312 12.14648438 C-9.94505859 11.41751953 -9.32566406 10.68855469 -8.6875 9.9375 C-8.07970703 9.20466797 -7.47191406 8.47183594 -6.84570312 7.71679688 C-4.63231538 5.05926738 -2.44646145 2.44646145 0 0 Z " fill="#139DE8" transform="translate(497,569)"/>
<path d="M0 0 C9.57 0.33 19.14 0.66 29 1 C29 1.33 29 1.66 29 2 C26.03 2 23.06 2 20 2 C19.67 2.66 19.34 3.32 19 4 C12.88909517 4.09945415 7.02596573 4.0712828 1 3 C0.67 2.01 0.34 1.02 0 0 Z " fill="#C8CDD7" transform="translate(402,684)"/>
<path d="M0 0 C-1.39347376 3.15204981 -3.02485079 5.26171773 -5.4765625 7.671875 C-6.48203125 8.66767578 -6.48203125 8.66767578 -7.5078125 9.68359375 C-8.20648438 10.36550781 -8.90515625 11.04742187 -9.625 11.75 C-10.33140625 12.44738281 -11.0378125 13.14476562 -11.765625 13.86328125 C-13.50598703 15.58012488 -15.25084981 17.29211832 -17 19 C-17.33 18.01 -17.66 17.02 -18 16 C-15.38308836 13.32529045 -12.75518292 10.66165519 -10.125 8 C-9.00544922 6.8553125 -9.00544922 6.8553125 -7.86328125 5.6875 C-7.14785156 4.965625 -6.43242187 4.24375 -5.6953125 3.5 C-5.03547363 2.8296875 -4.37563477 2.159375 -3.69580078 1.46875 C-2 0 -2 0 0 0 Z " fill="#212A3A" transform="translate(229,199)"/>
<path d="M0 0 C0.82741699 0.01047363 1.65483398 0.02094727 2.50732422 0.03173828 C3.40322266 0.03818359 4.29912109 0.04462891 5.22216797 0.05126953 C6.62789062 0.07640625 6.62789062 0.07640625 8.06201172 0.10205078 C9.00689453 0.11107422 9.95177734 0.12009766 10.92529297 0.12939453 C13.26278464 0.15300556 15.59977295 0.18593562 17.93701172 0.22705078 C17.93701172 1.21705078 17.93701172 2.20705078 17.93701172 3.22705078 C10.67701172 2.89705078 3.41701172 2.56705078 -4.06298828 2.22705078 C-2.06298828 0.22705078 -2.06298828 0.22705078 0 0 Z " fill="#01C2F5" transform="translate(510.06298828125,568.77294921875)"/>
<path d="M0 0 C0.66 0.99 1.32 1.98 2 3 C1.06810009 6.10633303 -0.19193628 8.28790442 -2 11 C-2.433125 12.5159375 -2.433125 12.5159375 -2.875 14.0625 C-4 17 -4 17 -6.125 18.375 C-6.74375 18.58125 -7.3625 18.7875 -8 19 C-5.9661126 12.38986596 -3.12173124 6.15984468 0 0 Z " fill="#242937" transform="translate(106,365)"/>
<path d="M0 0 C-6.3424084 4.22827226 -15.57730136 3.12168358 -23 3 C-23 2.34 -23 1.68 -23 1 C-15.34916042 -0.24911667 -7.72559014 -0.09053426 0 0 Z " fill="#10141F" transform="translate(579,40)"/>
<path d="M0 0 C0.33 0.99 0.66 1.98 1 3 C-0.51171875 5.3046875 -0.51171875 5.3046875 -2.6875 7.875 C-3.39261719 8.71804688 -4.09773438 9.56109375 -4.82421875 10.4296875 C-5.54222656 11.27789063 -6.26023437 12.12609375 -7 13 C-8.33810259 14.66284005 -9.67288661 16.32837636 -11 18 C-11.99 17.67 -12.98 17.34 -14 17 C-13.15695312 16.02417969 -12.31390625 15.04835938 -11.4453125 14.04296875 C-10.33845436 12.75788769 -9.23168833 11.4727273 -8.125 10.1875 C-7.56941406 9.54490234 -7.01382812 8.90230469 -6.44140625 8.24023438 C-5.90644531 7.61826172 -5.37148438 6.99628906 -4.8203125 6.35546875 C-4.32805176 5.78465576 -3.83579102 5.21384277 -3.32861328 4.62573242 C-1.81383993 2.8258536 -1.81383993 2.8258536 0 0 Z " fill="#2293E6" transform="translate(481,588)"/>
<path d="M0 0 C0.85305168 2.90669462 1.07289715 5.31048873 0.87890625 8.328125 C0.83056641 9.12734375 0.78222656 9.9265625 0.73242188 10.75 C0.67634766 11.575 0.62027344 12.4 0.5625 13.25 C0.51029297 14.09046875 0.45808594 14.9309375 0.40429688 15.796875 C0.27504311 17.8649352 0.13825726 19.9325222 0 22 C-0.33 22 -0.66 22 -1 22 C-1.33 16.72 -1.66 11.44 -2 6 C-2.99 5.67 -3.98 5.34 -5 5 C-4 2 -4 2 -1.9375 0.8125 C-1.298125 0.544375 -0.65875 0.27625 0 0 Z " fill="#04DAEF" transform="translate(908,284)"/>
<path d="M0 0 C0.11269443 6.1105424 -0.10395632 11.95170514 -1 18 C-1.33 18 -1.66 18 -2 18 C-2.99250545 12.29309366 -3.10477512 6.78591511 -3 1 C-1 0 -1 0 0 0 Z " fill="#3C424C" transform="translate(1203,671)"/>
<path d="M0 0 C2.44332726 1.07518118 4.76754523 2.19808566 7.125 3.4375 C7.78371094 3.77587891 8.44242188 4.11425781 9.12109375 4.46289062 C10.75106547 5.30149926 12.37601909 6.14984811 14 7 C9.80761095 8.39746302 7.89298197 6.84031875 4 5 C3.34 4.67 2.68 4.34 2 4 C2 3.34 2 2.68 2 2 C0.68 1.67 -0.64 1.34 -2 1 C-1.34 0.67 -0.68 0.34 0 0 Z " fill="#121827" transform="translate(897,107)"/>
<path d="M0 0 C1.32 0.33 2.64 0.66 4 1 C0.04 3.97 -3.92 6.94 -8 10 C-8.33 9.01 -8.66 8.02 -9 7 C-7.35 6.34 -5.7 5.68 -4 5 C-4 4.34 -4 3.68 -4 3 C-3.01 3 -2.02 3 -1 3 C-0.67 2.01 -0.34 1.02 0 0 Z " fill="#0072E4" transform="translate(867,919)"/>
<path d="M0 0 C0.66 0.33 1.32 0.66 2 1 C-4.75961538 7.94230769 -4.75961538 7.94230769 -8.6875 8.125 C-9.8321875 8.063125 -9.8321875 8.063125 -11 8 C-7.45960866 5.0843836 -3.8373228 2.49872182 0 0 Z " fill="#05C9E3" transform="translate(898,290)"/>
<path d="M0 0 C0.99 0.33 1.98 0.66 3 1 C-0.96 3.97 -4.92 6.94 -9 10 C-9 9.01 -9 8.02 -9 7 C-7.13671875 5.140625 -7.13671875 5.140625 -4.6875 3.25 C-3.88699219 2.61578125 -3.08648438 1.9815625 -2.26171875 1.328125 C-1.51535156 0.88984375 -0.76898437 0.4515625 0 0 Z " fill="#026ADD" transform="translate(789,979)"/>
<path d="M0 0 C0 0.66 0 1.32 0 2 C-1.65 2.33 -3.3 2.66 -5 3 C-5 3.66 -5 4.32 -5 5 C-7.875 5.625 -7.875 5.625 -11 6 C-11.66 5.34 -12.32 4.68 -13 4 C-11.2097939 3.32942113 -9.41778511 2.6636531 -7.625 2 C-6.62726562 1.62875 -5.62953125 1.2575 -4.6015625 0.875 C-2 0 -2 0 0 0 Z " fill="#E1E2E5" transform="translate(834,1171)"/>
<path d="M0 0 C0.33 0.99 0.66 1.98 1 3 C-1.52788007 5.79872437 -3.20411134 7.45773019 -7 8 C-6.875 6.25 -6.875 6.25 -6 4 C-2.9375 1.75 -2.9375 1.75 0 0 Z " fill="#111A2B" transform="translate(357,981)"/>
<path d="M0 0 C-1.13499394 3.29148243 -1.99283376 3.9959869 -5.125 5.75 C-6.548125 6.36875 -6.548125 6.36875 -8 7 C-7.8125 4.625 -7.8125 4.625 -7 2 C-4.54236535 0.67665827 -2.79402354 0 0 0 Z " fill="#19202C" transform="translate(386,91)"/>
<path d="M0 0 C5.19209404 -0.21192221 9.126739 0.4087311 14 2 C14 2.33 14 2.66 14 3 C4.58997722 3.18451025 4.58997722 3.18451025 0 2 C0 1.34 0 0.68 0 0 Z " fill="#282A31" transform="translate(542,1203)"/>
<path d="M0 0 C0.99 0.33 1.98 0.66 3 1 C1.9375 2.9375 1.9375 2.9375 0 5 C-3.6875 5.75 -3.6875 5.75 -7 6 C-2.25 1.125 -2.25 1.125 0 0 Z " fill="#101627" transform="translate(478,895)"/>
<path d="M0 0 C-3.13269705 3.13269705 -5.97328423 3.05494397 -10.25 3.0625 C-12.10625 3.0315625 -12.10625 3.0315625 -14 3 C-9.25294723 -0.16470185 -5.68228705 -0.10927475 0 0 Z " fill="#2B2E38" transform="translate(482,57)"/>
<path d="M0 0 C0.99 0 1.98 0 3 0 C5.42857143 6.28571429 5.42857143 6.28571429 4 10 C1.80902348 6.6659053 0.56545837 3.95820859 0 0 Z " fill="#242A3A" transform="translate(106,883)"/>
<path d="M0 0 C1.485 0.99 1.485 0.99 3 2 C2.34 5.3 1.68 8.6 1 12 C0.34 11.67 -0.32 11.34 -1 11 C-0.67 7.37 -0.34 3.74 0 0 Z " fill="#161C2B" transform="translate(57,512)"/>
<path d="M0 0 C2 3 2 3 1.625 5.1875 C1.41875 5.785625 1.2125 6.38375 1 7 C0.34 7 -0.32 7 -1 7 C-1.33 7.99 -1.66 8.98 -2 10 C-2.66 10 -3.32 10 -4 10 C-2.66666667 6.66666667 -1.33333333 3.33333333 0 0 Z " fill="#2C3243" transform="translate(111,355)"/>
<path d="M0 0 C0.66 0 1.32 0 2 0 C4.14418558 3.21627837 4.67582137 5.19090105 5 9 C4.34 9.66 3.68 10.32 3 11 C2.49384702 9.73160474 1.99530901 8.46016898 1.5 7.1875 C1.2215625 6.47980469 0.943125 5.77210938 0.65625 5.04296875 C0 3 0 3 0 0 Z " fill="#323846" transform="translate(79,819)"/>
<path d="M0 0 C0 0.66 0 1.32 0 2 C-3.4019487 4.09350689 -6.05272412 4.17942163 -10 4 C-4.7826087 0 -4.7826087 0 0 0 Z " fill="#242834" transform="translate(364,103)"/>
<path d="M0 0 C0.99 0.33 1.98 0.66 3 1 C1.68 3.64 0.36 6.28 -1 9 C-1.33 9 -1.66 9 -2 9 C-2.25 3.375 -2.25 3.375 0 0 Z " fill="#171F2F" transform="translate(1131,904)"/>
<path d="M0 0 C0.66 0 1.32 0 2 0 C0.82255415 3.53233755 0.04394359 3.86308075 -3.0625 5.6875 C-3.79597656 6.12449219 -4.52945313 6.56148437 -5.28515625 7.01171875 C-5.85105469 7.33785156 -6.41695312 7.66398438 -7 8 C-7 7.01 -7 6.02 -7 5 C-4.46815512 2.64276511 -3.52809907 2 0 2 C0 1.34 0 0.68 0 0 Z " fill="#0175E7" transform="translate(907,889)"/>
<path d="M0 0 C0.598125 0.20625 1.19625 0.4125 1.8125 0.625 C-2.8125 4.625 -2.8125 4.625 -6.1875 4.625 C-5.03076352 1.15479057 -3.91311293 -0.67081936 0 0 Z " fill="#151C2B" transform="translate(437.1875,925.375)"/>
<path d="M0 0 C1.25556424 3.90619985 0.81588958 6.36822084 -1 10 C-1.66 10 -2.32 10 -3 10 C-2.69201674 8.51988629 -2.378482 7.04092675 -2.0625 5.5625 C-1.88847656 4.73878906 -1.71445313 3.91507813 -1.53515625 3.06640625 C-1 1 -1 1 0 0 Z " fill="#ECEDEF" transform="translate(1180,795)"/>
<path d="M0 0 C0.99 0.33 1.98 0.66 3 1 C0.36 3.64 -2.28 6.28 -5 9 C-5 4.61031544 -2.87194899 3.23094261 0 0 Z " fill="#1C88E4" transform="translate(424,658)"/>
<path d="M0 0 C0.66 0.33 1.32 0.66 2 1 C-0.3125 3.5 -0.3125 3.5 -3 6 C-3.99 6 -4.98 6 -6 6 C-4 4 -2 2 0 0 Z " fill="#001737" transform="translate(835,946)"/>
<path d="M0 0 C3.16130459 4.21507278 3.3367697 5.06071112 3 10 C2.01 10 1.02 10 0 10 C0 6.7 0 3.4 0 0 Z " fill="#E6E8EA" transform="translate(45,663)"/>
<path d="M0 0 C3.29148243 1.13499394 3.9959869 1.99283376 5.75 5.125 C6.1625 6.07375 6.575 7.0225 7 8 C3.64379729 6.61122646 1.92701272 5.08322035 0 2 C0 1.34 0 0.68 0 0 Z " fill="#111726" transform="translate(1108,305)"/>
<path d="M0 0 C0 0.99 0 1.98 0 3 C-2.375 3.625 -2.375 3.625 -5 4 C-5.66 3.34 -6.32 2.68 -7 2 C-4.35261084 0.5393715 -3.10551666 0 0 0 Z " fill="#2A2F3A" transform="translate(393,88)"/>
<path d="M0 0 C-1.07401108 2.91517292 -1.77810176 4.77810176 -4 7 C-4.33 5.35 -4.66 3.7 -5 2 C-2 0 -2 0 0 0 Z " fill="#121826" transform="translate(1138,896)"/>
</svg>
